<svg xmlns="http://www.w3.org/2000/svg" width="1000" height="1000" viewBox="0 0 1000 1000">
  <rect width="1000" height="1000" fill="#ffffff"></rect>
  <g transform="matrix(0.7,0,0,0.7,149.57577426551563,444.3267756714404)">
    <svg viewBox="0 0 396 63" data-background-color="#ffffff" preserveAspectRatio="xMidYMid meet" height="159" width="1000" xmlns="http://www.w3.org/2000/svg">
      <g id="tight-bounds" transform="matrix(1,0,0,1,0.23999055836543448,0.013145846354518653)">
        <svg viewBox="0 0 395.52 62.97370830729095" height="62.97370830729095" width="395.52">
          <g>
            <svg viewBox="0 0 467.95023420134913 74.50586961702126" height="62.97370830729095" width="395.52">
              <g transform="matrix(1,0,0,1,72.43023420134914,23.02339515667311)">
                <svg viewBox="0 0 395.52 28.459079303675043" height="28.459079303675043" width="395.52">
                  <g id="textblocktransform">
                    <svg viewBox="0 0 395.52 28.459079303675043" height="28.459079303675043" width="395.52" id="textblock">
                      <g>
                        <svg viewBox="2.4000000953674316 -36.150001525878906 516.969970703125 37.20000076293945" height="28.459079303675043" data-palette-color="#4790fc">
<path d="M20.5-32.4Q22.35-30.1 24.75-26.48 27.15-22.85 28.1-21.65 29.05-20.45 29.63-20.45 30.2-20.45 30.65-21.1 31.1-21.75 33.95-26.1 36.8-30.45 38.65-32.73 40.5-35 41.6-35.05 42.7-35.1 44.45-35.1 46.2-35.1 48.55-35 50.9-34.9 51.68-33.77 52.45-32.65 52.6-30.6L52.6-30.6Q52.9-25.35 52.9-16.68 52.9-8 52.45-3L52.45-3Q52.35-1.8 51.55-0.85 50.75 0.1 49.35 0.1L49.35 0.1Q46.3 0.15 42.58 0.15 38.85 0.15 36.65 0L36.65 0Q35.85-0.05 35.23-0.63 34.6-1.2 34.55-2.15L34.55-2.15 34.25-10.4Q34.2-11.6 33.73-11.75 33.25-11.9 32.85-11.1L32.85-11.1Q30.2-6.4 26.25-0.6L26.25-0.6Q25.3 0.85 23.75 0.85 22.2 0.85 21.2-0.6L21.2-0.6Q19.45-3.1 15.25-11.2L15.25-11.2Q15-11.7 14.68-11.8 14.35-11.9 14.1-11.55 13.85-11.2 13.85-10.4L13.85-10.4 13.6-2.15Q13.55-1.2 12.75-0.63 11.95-0.05 10.9 0L10.9 0 5.95 0Q4.6-0.05 3.78-0.95 2.95-1.85 2.8-3L2.8-3Q2.4-7.45 2.4-16.82 2.4-26.2 2.65-30.6L2.65-30.6Q2.8-32.7 3.6-33.85 4.4-35 6.45-35L6.45-35Q16.95-35 17.8-34.85 18.65-34.7 20.5-32.4ZM83.05 1L83.05 1Q77 1 72.1-0.58 67.2-2.15 64.15-4.8 61.1-7.45 59.5-10.73 57.9-14 57.9-17.55 57.9-21.1 59.52-24.38 61.15-27.65 64.17-30.3 67.2-32.95 72.1-34.55 77-36.15 82.85-36.15 88.7-36.15 93.2-34.7 97.7-33.25 100.45-30.75L100.45-30.75Q106.05-25.65 106.05-18.65L106.05-18.65Q106.05-15.1 104.52-11.7 103-8.3 100.17-5.53 97.35-2.75 92.9-0.98 88.45 0.8 83.05 1ZM92.95-18.43Q92.95-20.8 91.25-22.58 89.55-24.35 86.07-24.35 82.6-24.35 80.55-22.5 78.5-20.65 78.5-18 78.5-15.35 80.65-13.75 82.8-12.15 85.82-12.15 88.85-12.15 90.9-14.1 92.95-16.05 92.95-18.43ZM140.05-2.6L140.05-2.6Q139.15-0.9 136.92 0.05 134.7 1 132.1 1 129.5 1 127.35 0.1 125.2-0.8 124.25-2.5L124.25-2.5Q116.75-16.35 110.3-29.7L110.3-29.7Q109.55-31.3 109.55-32.15L109.55-32.15Q109.55-34.85 112-34.85L112-34.85 126.45-34.95Q128.3-34.95 129.27-34.3 130.25-33.65 131-31.7L131-31.7 135.85-19.3Q136.15-18.5 136.95-18.5 137.75-18.5 138.15-19.3L138.15-19.3 144.7-33.5Q145.35-34.85 146.1-35L146.1-35Q146.4-35.05 147.15-35.05L147.15-35.05 152.9-34.95Q153.85-34.95 154.25-34.05L154.25-34.05Q154.4-33.7 154.4-33.2 154.4-32.7 153.27-30.45 152.15-28.2 147.42-17.95 142.7-7.7 140.05-2.6ZM163.09-35L163.09-35 176.49-35Q178.59-35 179.27-33.95 179.94-32.9 180.17-29.63 180.39-26.35 180.39-16.93 180.39-7.5 179.99-3.1L179.99-3.1Q179.84-1.95 178.97-1.05 178.09-0.15 176.64-0.05L176.64-0.05Q173.79 0.15 170.04 0.15 166.29 0.15 162.94-0.05L162.94-0.05Q161.49-0.15 160.62-1.05 159.74-1.95 159.59-3.1L159.59-3.1Q159.19-7.5 159.19-16.93 159.19-26.35 159.42-29.63 159.64-32.9 160.32-33.95 160.99-35 163.09-35ZM190.09 0Q188.69 0 187.72-0.93 186.74-1.85 186.47-3.98 186.19-6.1 186.19-16.73 186.19-27.35 186.54-30.6L186.54-30.6Q186.94-34.8 190.09-34.9L190.09-34.9Q193.69-35 219.94-35L219.94-35Q222.89-35 222.89-31.25L222.89-31.25Q222.89-28.3 220.29-28.3L220.29-28.3 209.29-28.3Q208.24-28.3 207.62-27.6 206.99-26.9 206.99-25.8L206.99-25.8 206.99-22.2Q206.99-20.7 208.34-20.7L208.34-20.7 217.44-20.7Q218.24-20.7 218.67-20.55 219.09-20.4 219.44-19.68 219.79-18.95 219.79-17.3 219.79-15.65 219.22-15.1 218.64-14.55 217.34-14.55L217.34-14.55 209.19-14.55Q207.94-14.55 207.47-13.93 206.99-13.3 206.99-12L206.99-12 206.99-9.55Q206.99-7.4 209.04-7.4L209.04-7.4 221.49-7.4Q222.39-7.4 223.09-6.88 223.79-6.35 223.79-4.58 223.79-2.8 222.94-1.4 222.09 0 220.94 0L220.94 0 190.09 0ZM269.19-24.55L269.19-24.55 269.29-15.3Q269.29-14.35 270.34-14.35L270.34-14.35Q273.44-14.35 275.21-16.07 276.99-17.8 276.99-20.15 276.99-22.5 275.31-24.2 273.64-25.9 270.39-25.9L270.39-25.9Q269.19-25.9 269.19-24.55ZM282.29-9.6L282.29-9.6Q283.24-8.6 289.04-2.05L289.04-2.05Q289.39-1.6 289.39-1.25L289.39-1.25Q289.39 0.05 288.24 0.05L288.24 0.05Q285.59 0.1 282.91 0.1 280.24 0.1 277.59 0.05L277.59 0.05Q276.14 0.05 274.94-1.1L274.94-1.1 270.64-7.6Q270.39-7.9 270.04-8L270.04-8Q269.24-8.3 269.24-7.35L269.24-7.35 269.24-2.25Q269.24-0.1 266.41 0.05 263.59 0.2 260.24 0.2 256.89 0.2 252.14-0.05L252.14-0.05Q250.69-0.15 249.81-1.05 248.94-1.95 248.79-3.1L248.79-3.1Q248.39-7.5 248.39-16.93 248.39-26.35 248.69-30.65 248.99-34.95 253.04-35L253.04-35Q256.84-35.05 263.39-35.05 269.94-35.05 274.24-34.95L274.24-34.95Q280.44-34.85 284.39-30.35 288.34-25.85 288.34-20.2L288.34-20.2Q288.34-16.9 286.81-14.1 285.29-11.3 282.29-9.6ZM298.03 0Q296.63 0 295.66-0.93 294.68-1.85 294.41-3.98 294.13-6.1 294.13-16.73 294.13-27.35 294.48-30.6L294.48-30.6Q294.88-34.8 298.03-34.9L298.03-34.9Q301.63-35 327.88-35L327.88-35Q330.83-35 330.83-31.25L330.83-31.25Q330.83-28.3 328.23-28.3L328.23-28.3 317.23-28.3Q316.18-28.3 315.56-27.6 314.93-26.9 314.93-25.8L314.93-25.8 314.93-22.2Q314.93-20.7 316.28-20.7L316.28-20.7 325.38-20.7Q326.18-20.7 326.61-20.55 327.03-20.4 327.38-19.68 327.73-18.95 327.73-17.3 327.73-15.65 327.16-15.1 326.58-14.55 325.28-14.55L325.28-14.55 317.13-14.55Q315.88-14.55 315.41-13.93 314.93-13.3 314.93-12L314.93-12 314.93-9.55Q314.93-7.4 316.98-7.4L316.98-7.4 329.43-7.4Q330.33-7.4 331.03-6.88 331.73-6.35 331.73-4.58 331.73-2.8 330.88-1.4 330.03 0 328.88 0L328.88 0 298.03 0ZM365.53-2.6L365.53-2.6Q364.63-0.9 362.41 0.05 360.18 1 357.58 1 354.98 1 352.83 0.1 350.68-0.8 349.73-2.5L349.73-2.5Q342.23-16.35 335.78-29.7L335.78-29.7Q335.03-31.3 335.03-32.15L335.03-32.15Q335.03-34.85 337.48-34.85L337.48-34.85 351.93-34.95Q353.78-34.95 354.76-34.3 355.73-33.65 356.48-31.7L356.48-31.7 361.33-19.3Q361.63-18.5 362.43-18.5 363.23-18.5 363.63-19.3L363.63-19.3 370.18-33.5Q370.83-34.85 371.58-35L371.58-35Q371.88-35.05 372.63-35.05L372.63-35.05 378.38-34.95Q379.33-34.95 379.73-34.05L379.73-34.05Q379.88-33.7 379.88-33.2 379.88-32.7 378.76-30.45 377.63-28.2 372.91-17.95 368.18-7.7 365.53-2.6ZM388.58-35L388.58-35 401.98-35Q404.08-35 404.75-33.95 405.43-32.9 405.65-29.63 405.88-26.35 405.88-16.93 405.88-7.5 405.48-3.1L405.48-3.1Q405.33-1.95 404.45-1.05 403.58-0.15 402.13-0.05L402.13-0.05Q399.28 0.15 395.53 0.15 391.78 0.15 388.43-0.05L388.43-0.05Q386.98-0.15 386.1-1.05 385.23-1.95 385.08-3.1L385.08-3.1Q384.68-7.5 384.68-16.93 384.68-26.35 384.9-29.63 385.13-32.9 385.8-33.95 386.48-35 388.58-35ZM415.58 0Q414.18 0 413.2-0.93 412.23-1.85 411.95-3.98 411.68-6.1 411.68-16.73 411.68-27.35 412.03-30.6L412.03-30.6Q412.43-34.8 415.58-34.9L415.58-34.9Q419.18-35 445.43-35L445.43-35Q448.38-35 448.38-31.25L448.38-31.25Q448.38-28.3 445.78-28.3L445.78-28.3 434.78-28.3Q433.73-28.3 433.1-27.6 432.48-26.9 432.48-25.8L432.48-25.8 432.48-22.2Q432.48-20.7 433.83-20.7L433.83-20.7 442.93-20.7Q443.73-20.7 444.15-20.55 444.58-20.4 444.93-19.68 445.28-18.95 445.28-17.3 445.28-15.65 444.7-15.1 444.13-14.55 442.83-14.55L442.83-14.55 434.68-14.55Q433.43-14.55 432.95-13.93 432.48-13.3 432.48-12L432.48-12 432.48-9.55Q432.48-7.4 434.53-7.4L434.53-7.4 446.98-7.4Q447.88-7.4 448.58-6.88 449.28-6.35 449.28-4.58 449.28-2.8 448.43-1.4 447.58 0 446.43 0L446.43 0 415.58 0ZM490.22-32.35L490.22-32.35 497.17-32.25Q498.72-32.25 499.57-31.65 500.42-31.05 500.82-29.65L500.82-29.65 503.87-19.55Q503.97-19.15 504.22-19 504.47-18.85 504.72-19 504.97-19.15 505.07-19.5L505.07-19.5 509.27-33.1Q509.57-34.1 510.2-34.5 510.82-34.9 512.17-34.9L512.17-34.9 517.82-34.9Q518.77-34.9 519.17-34L519.17-34Q519.37-33.6 519.37-33.1 519.37-32.6 518.45-30.28 517.52-27.95 514.32-18.1 511.12-8.25 508.77-3.15L508.77-3.15Q506.77 1.05 501.02 1.05L501.02 1.05Q497.92 1.05 495.17-0.38 492.42-1.8 491.5-3.93 490.57-6.05 489.05-10.15 487.52-14.25 486.92-15.85L486.92-15.85Q484.32-7.65 482.27-3.2L482.27-3.2Q481.32-1.2 478.8-0.1 476.27 1 473.22 1L473.22 1Q465.92 1 463.52-4.4L463.52-4.4Q455.87-21.8 453.12-29.95L453.12-29.95Q452.72-31.25 452.72-32.15L452.72-32.15Q452.72-34.95 455.37-34.95L455.37-34.95 469.67-35.1Q471.52-35.1 472.42-34.45 473.32-33.8 473.87-31.95L473.87-31.95 477.37-19.65Q477.47-19.2 477.72-19.05L477.72-19.05Q478.27-18.75 478.57-19.6L478.57-19.6 481.92-29.8Q482.67-32.2 485.02-32.25L485.02-32.25Q488.12-32.35 490.22-32.35Z" opacity="1" transform="matrix(1,0,0,1,0,0)" fill="#4790fc" class="wordmark-text-0" data-fill-palette-color="primary" id="text-0"></path></svg></g></svg></g></svg></g></svg></g><g><svg viewBox="0 0 65.71172859565475 74.50586961702126" height="74.50586961702126" width="65.71172859565475"><g><svg xmlns="http://www.w3.org/2000/svg" xmlns:xlink="http://www.w3.org/1999/xlink" version="1.1" x="0" y="0" viewBox="30 25 26.89999771118164 30.5" enable-background="new 0 0 80 80" xml:space="preserve" height="74.50586961702126" width="65.71172859565475" class="icon-icon-0" data-fill-palette-color="accent" id="icon-0"><g fill="#ed2326" data-fill-palette-color="accent"><path fill="#ed2326" d="M34.8 55.5c-0.9 0-1.8-0.2-2.6-0.7C30.8 53.9 30 52.5 30 51V33h2v18c0 0.8 0.5 1.5 1.2 2 0.9 0.5 1.9 0.6 2.8 0.2L53.6 44c0.8-0.4 1.3-1.3 1.3-2.2 0-0.9-0.5-1.7-1.2-2.1l-17.5-8.9L34.1 31l-0.2-2 2.7-0.2 18 9.1c1.5 0.8 2.3 2.2 2.3 3.9 0 1.7-0.9 3.2-2.4 4l-17.6 9.2C36.3 55.3 35.5 55.5 34.8 55.5z" data-fill-palette-color="accent"></path></g><g fill="#ed2326" data-fill-palette-color="accent"><polygon fill="#ed2326" points="37.6,38.1 34,28.6 43.5,25 44.2,26.8 36.6,29.7 39.5,37.4  " data-fill-palette-color="accent"></polygon></g></svg></g></svg></g></svg></g><defs></defs></svg><rect width="395.52" height="62.97370830729095" fill="none" stroke="none" visibility="hidden"></rect></g></svg></g></svg>